/* XPM */
static char *qbrew_32x32[] = {
/* columns rows colors chars-per-pixel */
"32 32 45 1",
"  c black",
". c #336633",
"X c #465D2E",
"o c #55552B",
"O c #47641D",
"+ c #4A6A1F",
"@ c #446622",
"# c #4C6523",
"$ c #4D6924",
"% c #506A26",
"& c #536C29",
"* c #56702C",
"= c #59712E",
"- c #5C7531",
"; c #5F7833",
": c #607733",
"> c #617935",
", c #657C38",
"< c #687E3A",
"1 c #6A813D",
"2 c #408040",
"3 c #6D8440",
"4 c #708641",
"5 c #738944",
"6 c #768D48",
"7 c #788E49",
"8 c #7C914C",
"9 c #7F9550",
"0 c #808000",
"q c #80944E",
"w c #819651",
"e c #859A54",
"r c #889C56",
"t c #8A9E58",
"y c #8DA15B",
"u c #91A45E",
"i c #93A660",
"p c #96A861",
"a c #9AAC65",
"s c #9DAF68",
"d c #9FB069",
"f c #A3B36C",
"g c #A7B770",
"h c #A9B971",
"j c None",
/* pixels */
"jjjjjjjjjjjjj$###jjjjjjjjjjjjjjj",
"jjjjjjjjjjjjjj$$$$#jjjjjjjjjjjjj",
"jjjjjjjjjjjjj2$$=*$#jjjjjjjjjjjj",
"jjjjjjjjjj&$&--&->>%$jjjjjjjjjjj",
"jjjjjjjjj&*5etew&11<%jj0+=-=jjjj",
"jjjjjjjj&,wyipi5-<55:%=>11,*jjjj",
"jjjjjjj#&8yisf87a-71*=*%&#Xjjjjj",
"jjjjjjj+$&-eaf,afr1-775<&#jjjjjj",
"jjjjjjo&8rw,166pffq=qq75<=# jjjj",
"jjjjjj&8ypsy-&yiaaaq=qq71<=#%jjj",
"jjjjj$3tpdg<8;yyyiua1=475<>&#jjj",
"jjjjj&9tisy,r,1351>>7a6:-&%#.jjj",
"jjjj#&;18t,8yiiit15yahfa471%jjjj",
"jjjj$$385;*wypffar>yaffi>yt*.jjj",
"jjjj%,yii--8eyiiy6&rufa77au,#jjj",
"jjj &eusw3*;131>>4q1yu7<ffa1#jjj",
"jjj#>eyi>wtiir=wyaf>6::phfi;@jjj",
"jjj%,,35-eyaff<8yfhu,=;qddi*jjjj",
"jjj%&6w7&9riap3,yaff76y=yu8$jjjj",
"jjj$3ya,-555<-4>eyay,aar*y*Ojjjj",
"jjj&9yy>558,3taa:te-uhdy&&&jjjjj",
"jjj=8w35tpfa,tahr=&rfhdw&+jjjjjj",
"jjj$&,-6tiss:rada161afa:$jjjjjjj",
"jjj&5y369tyw>>yir1h38ie&jjjjjjjj",
"jjj&eyt=>-=6i655>afi=r&%jjjjjjjj",
"jjj*9ty:et>tsd>*1aa6&&&jjjjjjjjj",
"jjj%&:1-ri47ip5e>tr&#$jjjjjjjjjj",
"jjj$&8y,7yi*w34a-,&Ojjjjjjjjjjjj",
"jjjj$3w6-,-7-*iw&%.jjjjjjjjjjjjj",
"jjjj+%&*<q>ia&1&#jjjjjjjjjjjjjjj",
"jjjjjjj&96&w-$&ojjjjjjjjjjjjjjjj",
"jjjjjjj$%%$&$jjjjjjjjjjjjjjjjjjj"
};
