/* XPM */
static char *qbrew_16x16[] = {
/* columns rows colors chars-per-pixel */
"16 16 147 2",
"   c black",
".  c #55552B",
"X  c #4A6722",
"o  c #4E6227",
"O  c #4C6623",
"+  c #4F6724",
"@  c #4A6A20",
"#  c #496D24",
"$  c #556622",
"%  c #506820",
"&  c #516A27",
"*  c #556C27",
"=  c #516A28",
"-  c #526B28",
";  c #526B29",
":  c #546D2B",
">  c #556E2A",
",  c #556E2B",
"<  c #566E2C",
"1  c #576F2E",
"2  c #57712E",
"3  c #58712D",
"4  c #59712D",
"5  c #58712E",
"6  c #59712E",
"7  c #58722D",
"8  c #58722E",
"9  c #59722E",
"0  c #5A732F",
"q  c #5B742F",
"w  c #5A7330",
"e  c #5A7431",
"r  c #5C7431",
"t  c #5D7531",
"y  c #5D7632",
"u  c #5E7432",
"i  c #5E7733",
"p  c #5F7733",
"a  c #5D7932",
"s  c #617835",
"d  c #617935",
"f  c #617A36",
"g  c #627A36",
"h  c #627B37",
"j  c #637B36",
"k  c #637C38",
"l  c #647B38",
"z  c #647C39",
"x  c #647D38",
"c  c #657D39",
"v  c #657E39",
"b  c #667D39",
"n  c #677C39",
"m  c #667E39",
"M  c #677E39",
"N  c #667E3A",
"B  c #697F3A",
"V  c #687F3C",
"C  c #67803A",
"Z  c #68803B",
"A  c #69813B",
"S  c #6A803B",
"D  c #68803C",
"F  c #69813C",
"G  c #6A813D",
"H  c #6A823D",
"J  c #6B823D",
"K  c #6B823E",
"L  c #6B833E",
"P  c #6C823F",
"I  c #6C833E",
"U  c #6D833F",
"Y  c #6C843F",
"T  c #6D853F",
"R  c #6D8640",
"E  c #6E8440",
"W  c #6E8540",
"Q  c #6F8641",
"!  c #6F8742",
"~  c #728843",
"^  c #728844",
"/  c #738944",
"(  c #738A45",
")  c #748A44",
"_  c #748A45",
"`  c #758B45",
"'  c #758B46",
"]  c #748C46",
"[  c #758C47",
"{  c #778D48",
"}  c #778E49",
"|  c #788D48",
" . c #788E48",
".. c #798E49",
"X. c #798F4A",
"o. c #7A8E49",
"O. c #7A904A",
"+. c #7A914B",
"@. c #7B914B",
"#. c #7B924C",
"$. c #7C914C",
"%. c #7C924D",
"&. c #7D924C",
"*. c #7D934E",
"=. c #7E924D",
"-. c #7F934D",
";. c #7F934E",
":. c #7E944E",
">. c #7F954F",
",. c #808000",
"<. c #80944E",
"1. c #81944E",
"2. c #81954F",
"3. c #809650",
"4. c #819651",
"5. c #829651",
"6. c #839752",
"7. c #839852",
"8. c #839953",
"9. c #859852",
"0. c #859953",
"q. c #849A54",
"w. c #889D57",
"e. c #899D58",
"r. c #8A9E58",
"t. c #8B9F59",
"y. c #8C9E59",
"u. c #8BA059",
"i. c #8DA15B",
"p. c #8DA25C",
"a. c #8FA35D",
"s. c #92A45E",
"d. c #92A55E",
"f. c #95A861",
"g. c #96A962",
"h. c #97A862",
"j. c #97A962",
"k. c #97AA63",
"l. c #98A963",
"z. c #98AA63",
"x. c #9BAD66",
"c. c #9CAE67",
"v. c #9FB069",
"b. c #A1B16B",
"n. c #A3B46C",
"m. c #A7B76F",
"M. c None",
/* pixels */
"M.M.M.M.M.M.O O O O M.M.M.M.M.M.",
"M.M.M.M.M.> t : 2 & O M.M.M.M.M.",
"M.M.M.M.e W q.*.s B > S Z q M.M.",
"M.M.M.$ t 2.c.$.9.I h 4 - . M.M.",
"M.M.M.t 3.:.c r.n.2.~ | c - o M.",
"M.M.4 #.g.2.W } 3.| Q ` h > O M.",
"M.M.4 h I c t.h.1.` c.n.~ Z ,.M.",
"M.M.c i.| h | *.~ W g.*.s.*.@ M.",
"M.+ S 9.T t.k.E a.s.B S m.| # M.",
"M.+ c } l *.#.S a.n.} +.r.c M.M.",
"M.2 >.~ +.1.` h.S S c.g.q . M.M.",
"M.> k c r.h.I h.*.*.z.+.S M.M.M.",
"M.4 q.S C Z t.Z 9.d.n s M.M.M.M.",
"M.2 i W 9.) 3.q.U n . M.M.M.M.M.",
"M.M.q z m ) U ' 4 M.M.M.M.M.M.M.",
"M.M.M.2 Z s s * M.M.M.M.M.M.M.M."
};
