<?xml version="1.0" encoding="UTF-8" standalone="no"?>
<!DOCTYPE svg PUBLIC "-//W3C//DTD SVG 20010904//EN"
"http://www.w3.org/TR/2001/REC-SVG-20010904/DTD/svg10.dtd">
<!-- Created with Sodipodi ("http://www.sodipodi.com/") -->
<svg
   xmlns="http://www.w3.org/2000/svg"
   xmlns:sodipodi="http://sodipodi.sourceforge.net/DTD/sodipodi-0.dtd"
   xmlns:xlink="http://www.w3.org/1999/xlink"
   id="svg633"
   sodipodi:version="0.34"
   width="210mm"
   height="297mm"
   xml:space="preserve"><defs
   id="defs635"><linearGradient
   id="linearGradient792"><stop
   style="stop-color:#aebd75;stop-opacity:1;"
   offset="0"
   id="stop793" /><stop
   style="stop-color:#4c6623;stop-opacity:1;"
   offset="1"
   id="stop794" /></linearGradient><linearGradient
   id="linearGradient717"><stop
   style="stop-color:#aebd75;stop-opacity:1;"
   offset="0"
   id="stop718" /><stop
   style="stop-color:#7a914c;stop-opacity:1;"
   offset="1"
   id="stop719" /></linearGradient><linearGradient
   xlink:href="#linearGradient717"
   id="linearGradient720"
   x1="0.46092838"
   y1="0.10155888"
   x2="0.46093714"
   y2="0.60156286" /><linearGradient
   xlink:href="#linearGradient792"
   id="linearGradient721"
   x1="-4.30447934e-3"
   y1="1.13107407"
   x2="0.86577106"
   y2="3.5911914e-2"
   gradientTransform="matrix(1.149322,0,0,0.870079,3.703627e-8,-2.635023e-6)" /><linearGradient
   xlink:href="#linearGradient792"
   id="linearGradient722"
   x1="0.71969694"
   y1="0.13094531"
   x2="0.25378779"
   y2="0.90476149" /><linearGradient
   xlink:href="#linearGradient717"
   id="linearGradient723"
   x1="-0.74572086"
   y1="1.37078667"
   x2="-1.76111066"
   y2="0.20950243"
   gradientTransform="scale(0.983982,1.016279)" /><linearGradient
   xlink:href="#linearGradient717"
   id="linearGradient724"
   x1="0.3583912"
   y1="1.22586572"
   x2="-0.73460901"
   y2="-2.41801012e-2"
   gradientTransform="scale(1.008364,0.991706)" /><linearGradient
   xlink:href="#linearGradient717"
   id="linearGradient725"
   x1="1.00621903"
   y1="1.1414386"
   x2="-6.11459762e-2"
   y2="-7.92888775e-2"
   gradientTransform="scale(0.899597,1.111608)" /><linearGradient
   xlink:href="#linearGradient717"
   id="linearGradient726"
   x1="-0.18687743"
   y1="1.02628052"
   x2="-1.26454127"
   y2="-0.20622563"
   gradientTransform="scale(0.994215,1.005819)" /><linearGradient
   xlink:href="#linearGradient717"
   id="linearGradient727"
   x1="-0.75104785"
   y1="0.9130339"
   x2="-1.82260203"
   y2="-0.31248474"
   gradientTransform="scale(1.024336,0.976242)" /><linearGradient
   xlink:href="#linearGradient717"
   id="linearGradient728"
   x1="0.33086675"
   y1="0.6599974"
   x2="-0.81821889"
   y2="-0.65419245"
   gradientTransform="scale(1.012145,0.988001)" /><linearGradient
   xlink:href="#linearGradient717"
   id="linearGradient729"
   x1="0.9746415"
   y1="0.60676956"
   x2="-0.15076554"
   y2="-0.68033963"
   gradientTransform="scale(0.988859,1.011267)" /><linearGradient
   xlink:href="#linearGradient717"
   id="linearGradient730"
   x1="-0.16531569"
   y1="0.45148152"
   x2="-1.31291163"
   y2="-0.86100489"
   gradientTransform="scale(1.015664,0.984577)" /><linearGradient
   xlink:href="#linearGradient717"
   id="linearGradient731"
   x1="-0.69390947"
   y1="0.28532657"
   x2="-1.82205558"
   y2="-1.00491536"
   gradientTransform="scale(1.027162,0.973556)" /><linearGradient
   xlink:href="#linearGradient717"
   id="linearGradient732"
   x1="0.37454054"
   y1="0.12655871"
   x2="-0.82857394"
   y2="-1.24942315"
   gradientTransform="scale(1.024735,0.975862)" /><linearGradient
   xlink:href="#linearGradient717"
   id="linearGradient733"
   x1="0.87879175"
   y1="3.86201963e-2"
   x2="-0.30932257"
   y2="-1.32020628"
   gradientTransform="scale(1.035834,0.965405)" /><linearGradient
   xlink:href="#linearGradient717"
   id="linearGradient734"
   x1="-0.11674645"
   y1="-7.17981234e-2"
   x2="-1.28948224"
   y2="-1.41303635"
   gradientTransform="scale(1.024408,0.976174)" /><linearGradient
   xlink:href="#linearGradient717"
   id="linearGradient735"
   x1="-0.58774197"
   y1="-0.17634155"
   x2="-1.77701724"
   y2="-1.5364958"
   gradientTransform="scale(1.064209,0.939665)" /><linearGradient
   xlink:href="#linearGradient717"
   id="linearGradient736"
   x1="0.28052136"
   y1="-0.50025755"
   x2="-0.98238957"
   y2="-1.94462752"
   gradientTransform="scale(1.029561,0.971288)" /><linearGradient
   xlink:href="#linearGradient717"
   id="linearGradient737"
   x1="0.72412598"
   y1="-0.48259845"
   x2="-0.52769178"
   y2="-1.91428149"
   gradientTransform="scale(1.072758,0.932176)" /><linearGradient
   xlink:href="#linearGradient717"
   id="linearGradient738"
   x1="-0.12429834"
   y1="-0.6373291"
   x2="-1.39587128"
   y2="-2.0916059"
   gradientTransform="scale(1.015664,0.984578)" /><linearGradient
   xlink:href="#linearGradient717"
   id="linearGradient739"
   x1="-0.43618548"
   y1="-0.64563066"
   x2="-1.68805397"
   y2="-2.0773716"
   gradientTransform="scale(1.064209,0.939665)" /><linearGradient
   xlink:href="#linearGradient717"
   id="linearGradient740"
   x1="0.32236549"
   y1="-1.06645739"
   x2="-1.07320154"
   y2="-2.66254401"
   gradientTransform="scale(1.036524,0.964763)" /><linearGradient
   xlink:href="#linearGradient717"
   id="linearGradient741"
   x1="0.51464438"
   y1="-1.12303185"
   x2="-0.8750574"
   y2="-2.71241045"
   gradientTransform="scale(1.090832,0.916732)" /><linearGradient
   xlink:href="#linearGradient717"
   id="linearGradient742"
   x1="5.03213219e-2"
   y1="-1.15522349"
   x2="-1.36253667"
   y2="-2.7710855"
   gradientTransform="scale(1.015663,0.984579)" /><linearGradient
   xlink:href="#linearGradient717"
   id="linearGradient743"
   x1="-0.31020772"
   y1="-1.18716145"
   x2="-1.70105457"
   y2="-2.77784944"
   gradientTransform="scale(1.07493,0.930293)" /><linearGradient
   xlink:href="#linearGradient717"
   id="linearGradient744"
   x1="0.31634852"
   y1="-1.31188822"
   x2="-1.07039726"
   y2="-2.89788628"
   gradientTransform="scale(1.043885,0.95796)" /><linearGradient
   xlink:href="#linearGradient717"
   id="linearGradient745"
   x1="-6.14838488e-2"
   y1="-1.40655446"
   x2="-1.45449793"
   y2="-2.99972105"
   gradientTransform="scale(1.038771,0.962676)" /><radialGradient
   xlink:href="#linearGradient717"
   id="radialGradient750"
   cx="0.49090889"
   cy="0.31247497"
   r="0.85549045"
   fx="0.49090889"
   fy="0.31247497" /><radialGradient
   xlink:href="#linearGradient717"
   id="radialGradient751" /><radialGradient
   xlink:href="#linearGradient717"
   id="radialGradient752" /><radialGradient
   xlink:href="#linearGradient717"
   id="radialGradient753" /><radialGradient
   xlink:href="#linearGradient717"
   id="radialGradient754" /><radialGradient
   xlink:href="#linearGradient717"
   id="radialGradient755" /><radialGradient
   xlink:href="#linearGradient717"
   id="radialGradient756" /><radialGradient
   xlink:href="#linearGradient717"
   id="radialGradient757" /><radialGradient
   xlink:href="#linearGradient717"
   id="radialGradient758" /><radialGradient
   xlink:href="#linearGradient717"
   id="radialGradient759" /><radialGradient
   xlink:href="#linearGradient717"
   id="radialGradient760" /><radialGradient
   xlink:href="#linearGradient717"
   id="radialGradient761" /><radialGradient
   xlink:href="#linearGradient717"
   id="radialGradient762" /><radialGradient
   xlink:href="#linearGradient717"
   id="radialGradient763" /><radialGradient
   xlink:href="#linearGradient717"
   id="radialGradient764" /><radialGradient
   xlink:href="#linearGradient717"
   id="radialGradient765" /><radialGradient
   xlink:href="#linearGradient717"
   id="radialGradient766" /><radialGradient
   xlink:href="#linearGradient717"
   id="radialGradient767" /><radialGradient
   xlink:href="#linearGradient792"
   id="radialGradient768"
   cx="-0.23478094"
   cy="0.78807265"
   r="1.4481703"
   fx="-0.23478094"
   fy="0.78807265"
   gradientTransform="scale(0.817427,1.223351)" /><radialGradient
   xlink:href="#linearGradient717"
   id="radialGradient769" /><radialGradient
   xlink:href="#linearGradient717"
   id="radialGradient770" /><radialGradient
   xlink:href="#linearGradient717"
   id="radialGradient771" /><radialGradient
   xlink:href="#linearGradient792"
   id="radialGradient772"
   cx="0.39131451"
   cy="1.17980468"
   r="1.17982531"
   fx="0.39131451"
   fy="1.17980468" /><radialGradient
   xlink:href="#linearGradient792"
   id="radialGradient773"
   cx="8.99941772e-2"
   cy="0.66344678"
   r="0.78364265"
   fx="8.99941772e-2"
   fy="0.66344678"
   gradientTransform="scale(1.149322,0.870079)" /><radialGradient
   xlink:href="#linearGradient792"
   id="radialGradient774"
   cx="0.5"
   cy="0.5"
   r="0.5"
   fx="0.5"
   fy="0.5" /><radialGradient
   xlink:href="#linearGradient717"
   id="radialGradient775" /></defs><sodipodi:namedview
   id="base" /><path
   style="font-size:12;fill:url(#radialGradient771);stroke:#4c6623;stroke-width:12.5;stroke-linecap:round;stroke-linejoin:round;"
   d="M 163.2026 581.0824 C 162.1886 604.4154 174.0466 649.0154 192.4276 672.7234 C 224.7246 669.5334 256.4966 642.5994 269.8116 624.2464 C 295.3096 592.3484 270.0256 544.5244 240.5866 532.6044 C 211.1466 520.6854 164.5256 539.0474 163.2026 581.0824 z "
   id="path716"
   sodipodi:nodetypes="ccsss" /><path
   style="font-size:12;fill:url(#radialGradient770);stroke:#4c6623;stroke-width:12.5;stroke-linecap:round;stroke-linejoin:round;"
   d="M 226.9016 603.4934 C 209.2036 618.2384 167.1516 635.0864 137.5966 634.1194 C 120.8426 605.6784 123.0246 563.5124 129.4816 541.6294 C 139.2966 501.6584 191.8846 493.9204 218.7866 511.0034 C 245.6876 528.0864 259.0826 577.3434 226.9016 603.4934 z "
   id="path715"
   sodipodi:nodetypes="ccsss" /><path
   style="font-size:12;fill:url(#radialGradient769);stroke:#4c6623;stroke-width:12.5;stroke-linecap:round;stroke-linejoin:round;"
   d="M 207.2146 579.8434 C 209.5126 605.2914 248.3036 639.0094 246.2196 674.6294 C 274.9396 666.1514 299.9176 632.0194 309.4106 610.0574 C 328.0396 571.5204 298.6256 523.6134 270.4056 515.2704 C 242.1846 506.9274 202.6216 534.0764 207.2146 579.8434 z "
   id="path711"
   sodipodi:nodetypes="ccsss" /><path
   style="font-size:12;fill:url(#radialGradient767);stroke:#4c6623;stroke-width:12.5;stroke-linecap:round;stroke-linejoin:round;"
   d="M 203.2016 565.1904 C 180.9946 577.3464 131.7756 563.3234 103.6266 584.8054 C 94.69663 555.9044 108.9436 515.9524 121.7536 495.7884 C 143.1396 458.7464 198.8366 457.0084 221.3286 476.1734 C 243.8196 495.3384 243.3946 543.7184 203.2016 565.1904 z "
   id="path713"
   sodipodi:nodetypes="ccsss" /><path
   style="font-size:12;fill:url(#radialGradient766);stroke:#4c6623;stroke-width:12.5;stroke-linecap:round;stroke-linejoin:round;"
   d="M 283.8686 583.3354 C 268.2046 600.7984 228.3986 624.6274 198.5996 628.9314 C 177.7436 604.2814 173.9386 562.9374 177.3076 540.5354 C 181.4766 499.9684 233.1506 483.1194 262.5766 494.9384 C 292.0026 506.7574 312.4466 552.2244 283.8686 583.3354 z "
   id="path714"
   sodipodi:nodetypes="ccsss" /><path
   style="font-size:12;fill:url(#radialGradient765);stroke:#4c6623;stroke-width:12.5;stroke-linecap:round;stroke-linejoin:round;"
   d="M 256.5216 544.5354 C 260.1446 572.8544 304.4366 609.0884 303.6516 648.9184 C 335.0206 638.4214 361.1616 599.4264 370.7146 574.5724 C 389.6536 530.8914 355.1166 478.4844 323.5836 470.1894 C 292.0496 461.8954 249.4976 493.6214 256.5216 544.5354 z "
   id="path707"
   sodipodi:nodetypes="ccsss" /><path
   style="font-size:12;fill:url(#radialGradient764);stroke:#4c6623;stroke-width:12.5;stroke-linecap:round;stroke-linejoin:round;"
   d="M 219.4196 518.0674 C 223.6136 544.4374 246.2816 592.2044 271.1576 615.2894 C 304.7356 605.5364 332.3936 569.2474 342.3876 546.1124 C 362.2616 505.4544 324.6066 456.6354 290.6496 448.8914 C 256.6926 441.1464 211.3296 470.6584 219.4196 518.0674 z "
   id="path708"
   sodipodi:nodetypes="ccsss" /><path
   style="font-size:12;fill:url(#radialGradient763);stroke:#4c6623;stroke-width:12.5;stroke-linecap:round;stroke-linejoin:round;"
   d="M 216.2216 490.9534 C 190.3206 502.6894 136.4056 483.7594 103.0586 505.2994 C 95.52063 472.9474 114.8756 430.1414 130.9346 408.9424 C 158.0336 369.8434 220.5456 371.9494 244.0966 394.5964 C 267.6486 417.2424 263.0536 470.2914 216.2216 490.9534 z "
   id="path709"
   sodipodi:nodetypes="ccsss" /><path
   style="font-size:12;fill:url(#radialGradient762);stroke:#4c6623;stroke-width:12.5;stroke-linecap:round;stroke-linejoin:round;"
   d="M 278.1926 524.2744 C 254.5736 535.9344 203.1306 544.5054 170.2706 537.0534 C 158.8186 503.4854 172.1116 459.5984 184.9746 437.9814 C 206.2546 398.0674 267.1556 401.3744 292.8966 425.2034 C 318.6376 449.0324 320.9706 503.7694 278.1926 524.2744 z "
   id="path710"
   sodipodi:nodetypes="ccsss" /><path
   style="font-size:12;fill:url(#radialGradient761);stroke:#4c6623;stroke-width:12.5;stroke-linecap:round;stroke-linejoin:round;"
   d="M 312.6226 499.9604 C 316.4366 529.7704 363.0596 567.9114 362.2336 609.8374 C 395.2536 598.7874 422.7696 557.7404 432.8256 531.5794 C 452.7616 485.5984 416.4066 430.4334 383.2136 421.7024 C 350.0206 412.9714 305.2286 446.3674 312.6226 499.9604 z "
   id="path703"
   sodipodi:nodetypes="ccsss" /><path
   style="font-size:12;fill:url(#radialGradient760);stroke:#4c6623;stroke-width:12.5;stroke-linecap:round;stroke-linejoin:round;"
   d="M 259.0706 452.1564 C 263.3866 480.8384 287.4756 532.6734 314.1476 557.6114 C 350.4796 546.7204 380.6326 506.9804 391.6096 481.7074 C 413.3936 437.2724 373.1316 384.4134 336.5326 376.2534 C 299.9326 368.0924 250.7166 400.5944 259.0706 452.1564 z "
   id="path704"
   sodipodi:nodetypes="ccsss" /><path
   style="font-size:12;fill:url(#radialGradient759);stroke:#4c6623;stroke-width:12.5;stroke-linecap:round;stroke-linejoin:round;"
   d="M 233.2176 415.7314 C 204.2706 425.1804 149.2526 400.1514 111.2056 418.9454 C 107.1046 384.8254 132.8496 342.6774 152.4806 322.4674 C 186.0106 284.9344 252.1986 293.4984 274.4936 319.2524 C 296.7886 345.0074 285.4916 399.2214 233.2176 415.7314 z "
   id="path705"
   sodipodi:nodetypes="ccsss" /><path
   style="font-size:12;fill:url(#radialGradient758);stroke:#4c6623;stroke-width:12.5;stroke-linecap:round;stroke-linejoin:round;"
   d="M 315.1986 436.4874 C 290.6536 449.7094 236.5876 460.8934 201.5856 454.5064 C 188.2686 419.8594 200.7346 373.3474 213.5506 350.1654 C 234.6016 307.4674 299.0946 308.3104 327.1636 332.1474 C 355.2336 355.9844 359.6756 413.1824 315.1986 436.4874 z "
   id="path706"
   sodipodi:nodetypes="ccsss" /><path
   style="font-size:12;fill:url(#radialGradient757);stroke:#4c6623;stroke-width:12.5;stroke-linecap:round;stroke-linejoin:round;"
   d="M 371.9576 453.1184 C 379.2716 484.4284 431.7336 520.4864 435.6296 565.1164 C 468.4736 550.2094 492.2356 503.9564 499.6556 475.1944 C 515.0326 424.4254 471.2446 369.2924 435.9826 363.1964 C 400.7196 357.1004 358.2516 396.8804 371.9576 453.1184 z "
   id="path699"
   sodipodi:nodetypes="ccsss" /><path
   style="font-size:12;fill:url(#radialGradient756);stroke:#4c6623;stroke-width:12.5;stroke-linecap:round;stroke-linejoin:round;"
   d="M 309.9816 380.4834 C 314.6296 409.7024 339.7456 462.6304 367.3096 488.2084 C 404.5146 477.4024 435.1606 437.1924 446.2336 411.5584 C 468.2546 366.5084 426.5316 312.4154 388.9066 303.8344 C 351.2816 295.2534 301.0176 327.9524 309.9816 380.4834 z "
   id="path700"
   sodipodi:nodetypes="ccsss" /><path
   style="font-size:12;fill:url(#radialGradient755);stroke:#4c6623;stroke-width:12.5;stroke-linecap:round;stroke-linejoin:round;"
   d="M 265.6446 329.2864 C 233.7346 336.0664 178.2826 304.6384 135.5716 320.1204 C 135.3366 284.5274 167.7956 243.7134 191.1036 224.8874 C 231.2786 189.6254 300.5926 205.2244 321.1766 234.0534 C 341.7606 262.8824 323.2006 317.6144 265.6446 329.2864 z "
   id="path701"
   sodipodi:nodetypes="ccsss" /><path
   style="font-size:12;fill:url(#radialGradient754);stroke:#4c6623;stroke-width:12.5;stroke-linecap:round;stroke-linejoin:round;"
   d="M 357.2056 367.6914 C 329.2966 377.8004 270.6516 381.5624 234.8346 369.9384 C 226.2936 332.2804 246.7496 286.0894 263.8916 264.0184 C 292.7786 222.9974 360.4946 233.1424 386.2626 261.7714 C 412.0306 290.3994 407.6756 350.0464 357.2056 367.6914 z "
   id="path702"
   sodipodi:nodetypes="ccsss" /><path
   style="font-size:12;fill:url(#radialGradient751);stroke:#4c6623;stroke-width:12.5;stroke-linecap:round;stroke-linejoin:round;"
   d="M 439.2066 367.0814 C 450.1376 397.3584 506.4236 427.1254 515.5246 471.0384 C 546.3656 452.4154 564.5206 403.6834 568.5096 374.2314 C 577.8136 321.9814 527.8986 272.2484 492.1926 270.2744 C 456.4866 268.3004 419.0116 312.7644 439.2066 367.0814 z "
   id="path695"
   sodipodi:nodetypes="ccsss" /><path
   style="font-size:12;fill:url(#radialGradient753);stroke:#4c6623;stroke-width:12.5;stroke-linecap:round;stroke-linejoin:round;"
   d="M 370.8926 287.7544 C 373.6086 317.7604 395.4026 373.7704 421.5246 402.3684 C 459.8586 395.1304 493.5566 357.5094 506.4866 332.6874 C 531.7966 289.3164 493.2976 230.4804 455.8546 218.0734 C 418.4116 205.6644 365.3956 233.7464 370.8926 287.7544 z "
   id="path696"
   sodipodi:nodetypes="ccsss" /><path
   style="font-size:12;fill:url(#radialGradient752);stroke:#4c6623;stroke-width:12.5;stroke-linecap:round;stroke-linejoin:round;"
   d="M 309.9026 257.2634 C 276.8116 251.7644 235.8186 203.2844 189.0786 201.6954 C 202.4546 169.5474 249.0746 144.5874 278.5476 136.1064 C 330.4206 118.9544 390.7126 158.2174 399.3706 191.6744 C 408.0286 225.1314 369.3756 267.6834 309.9026 257.2634 z "
   id="path697"
   sodipodi:nodetypes="ccsss" /><path
   style="font-size:12;fill:url(#linearGradient720);fill-rule:evenodd;stroke:#4c6623;stroke-width:12.5;stroke-linecap:round;stroke-linejoin:round;"
   d="M 561.4266 176.2734 C 501.2036 181.3974 449.5436 205.3034 402.0796 236.4294 L 395.2866 218.4464 C 442.5786 182.9814 494.5806 167.7534 554.6336 158.2914 L 561.4266 176.2734 z "
   id="path791"
   sodipodi:nodetypes="ccccc" /><path
   style="font-size:12;fill:url(#radialGradient750);stroke:#4c6623;stroke-width:12.5;stroke-linecap:round;stroke-linejoin:round;"
   d="M 419.8566 287.6284 C 392.7476 298.9464 334.7376 306.0864 298.4766 297.1934 C 287.7456 261.8594 305.2996 216.6434 321.0026 194.5904 C 347.2366 153.7844 415.0846 159.3334 442.3826 185.0244 C 469.6806 210.7164 468.9196 267.7664 419.8566 287.6284 z "
   id="path698"
   sodipodi:nodetypes="ccsss" /><path
   style="font-size:12;fill:url(#radialGradient772);stroke:#4c6623;stroke-width:12.5;stroke-linecap:round;stroke-linejoin:round;"
   d="M 372.4576 204.3504 C 350.6096 174.9614 337.1926 117.7844 304.3076 79.35441 C 324.3976 74.10041 365.8926 99.20041 389.7326 118.7064 C 432.4236 151.9284 462.6536 220.0524 457.8816 243.7024 C 453.1116 267.3524 411.5486 257.4374 372.4576 204.3504 z "
   id="path785"
   sodipodi:nodetypes="ccsss" /><path
   style="font-size:12;fill:url(#radialGradient768);stroke:#4c6623;stroke-width:12.5;stroke-linecap:round;stroke-linejoin:round;"
   d="M 487.2216 197.8564 C 514.2066 209.8294 543.7586 254.6214 582.4486 267.0914 C 568.3436 286.9644 527.2806 293.6144 502.0026 292.5704 C 457.3036 292.3324 410.8576 249.4904 406.7766 223.3364 C 402.6956 197.1814 438.7726 175.9514 487.2216 197.8564 z "
   id="path788"
   sodipodi:nodetypes="ccsss" /></svg>
